name rise30.2954peak35.7071fall66.7804.mot
datacolumns 19
datarows 61
range 0.000000 0.100007
endheader
time	ground_force1_vx	ground_force1_vy	ground_force1_vz	ground_force1_px	ground_force1_py	ground_force1_pz	ground_force2_vx	ground_force2_vy	ground_force2_vz	ground_force2_px	ground_force2_py	ground_force2_pz	ground_torque1_x	ground_torque1_y	ground_torque1_z	ground_torque2_x	ground_torque2_y	ground_torque2_z	
0.000000	0.000000	0.000000	0.000000	0.000000	0.000000	0.000000	14.234624	692.927043	-46.483230	0.213654	0.000000	-0.088335	0.000000	0.000000	0.000000	0.000000	-19.612843	0.000000	
0.001669	0.000000	0.000000	0.000000	0.000000	0.000000	0.000000	14.434838	692.436269	-46.520516	0.213908	0.000000	-0.088331	0.000000	0.000000	0.000000	0.000000	-19.614388	0.000000	
0.003337	0.000000	0.000000	0.000000	0.000000	0.000000	0.000000	14.633424	691.949309	-46.557426	0.214178	0.000000	-0.088326	0.000000	0.000000	0.000000	0.000000	-19.616705	0.000000	
0.005007	0.000000	0.000000	0.000000	0.000000	0.000000	0.000000	14.830428	691.462981	-46.593547	0.214465	0.000000	-0.088318	0.000000	0.000000	0.000000	0.000000	-19.619041	0.000000	
0.006670	0.000000	0.000000	0.000000	0.000000	0.000000	0.000000	15.026119	690.973470	-46.628498	0.214768	0.000000	-0.088308	0.000000	0.000000	0.000000	0.000000	-19.620616	0.000000	
0.008335	0.000000	0.000000	0.000000	0.000000	0.000000	0.000000	15.220905	690.476666	-46.661941	0.215088	0.000000	-0.088295	0.000000	0.000000	0.000000	0.000000	-19.620669	0.000000	
0.010003	0.000000	0.000000	0.000000	0.000000	0.000000	0.000000	15.415250	689.968493	-46.693582	0.215424	0.000000	-0.088280	0.000000	0.000000	0.000000	0.000000	-19.618492	0.000000	
0.011671	0.000000	0.000000	0.000000	0.000000	0.000000	0.000000	15.609602	689.445189	-46.723170	0.215775	0.000000	-0.088262	0.000000	0.000000	0.000000	0.000000	-19.613463	0.000000	
0.013334	0.000000	0.000000	0.000000	0.000000	0.000000	0.000000	15.804325	688.903526	-46.750493	0.216141	0.000000	-0.088241	0.000000	0.000000	0.000000	0.000000	-19.605063	0.000000	
0.015007	0.000000	0.000000	0.000000	0.000000	0.000000	0.000000	15.999656	688.340963	-46.775379	0.216521	0.000000	-0.088217	0.000000	0.000000	0.000000	0.000000	-19.592889	0.000000	
0.016668	0.000000	0.000000	0.000000	0.000000	0.000000	0.000000	16.195670	687.755741	-46.797689	0.216915	0.000000	-0.088190	0.000000	0.000000	0.000000	0.000000	-19.576657	0.000000	
0.018348	0.000000	0.000000	0.000000	0.000000	0.000000	0.000000	16.392264	687.146906	-46.817308	0.217322	0.000000	-0.088161	0.000000	0.000000	0.000000	0.000000	-19.556200	0.000000	
0.020006	0.000000	0.000000	0.000000	0.000000	0.000000	0.000000	16.589158	686.514285	-46.834146	0.217740	0.000000	-0.088128	0.000000	0.000000	0.000000	0.000000	-19.531454	0.000000	
0.021672	0.000000	0.000000	0.000000	0.000000	0.000000	0.000000	16.785899	685.858418	-46.848123	0.218170	0.000000	-0.088092	0.000000	0.000000	0.000000	0.000000	-19.502450	0.000000	
0.023337	0.000000	0.000000	0.000000	0.000000	0.000000	0.000000	16.981886	685.180460	-46.859175	0.218608	0.000000	-0.088053	0.000000	0.000000	0.000000	0.000000	-19.469292	0.000000	
0.025000	0.000000	0.000000	0.000000	0.000000	0.000000	0.000000	17.176388	684.482069	-46.867239	0.219056	0.000000	-0.088011	0.000000	0.000000	0.000000	0.000000	-19.432145	0.000000	
0.026683	0.000000	0.000000	0.000000	0.000000	0.000000	0.000000	17.368580	683.765282	-46.872257	0.219510	0.000000	-0.087966	0.000000	0.000000	0.000000	0.000000	-19.391211	0.000000	
0.028366	0.000000	0.000000	0.000000	0.000000	0.000000	0.000000	17.557564	683.032400	-46.874171	0.219969	0.000000	-0.087918	0.000000	0.000000	0.000000	0.000000	-19.346720	0.000000	
0.030002	0.000000	0.000000	0.000000	0.000000	0.000000	0.000000	17.742403	682.285884	-46.872920	0.220433	0.000000	-0.087866	0.000000	0.000000	0.000000	0.000000	-19.298915	0.000000	
0.031671	0.000000	0.000000	0.000000	0.000000	0.000000	0.000000	17.922142	681.528265	-46.868444	0.220899	0.000000	-0.087812	0.000000	0.000000	0.000000	0.000000	-19.248039	0.000000	
0.033336	0.000000	0.000000	0.000000	0.000000	0.000000	0.000000	18.095828	680.762073	-46.860679	0.221365	0.000000	-0.087754	0.000000	0.000000	0.000000	0.000000	-19.194331	0.000000	
0.035008	0.000000	0.000000	0.000000	0.000000	0.000000	0.000000	18.262530	679.989792	-46.849562	0.221831	0.000000	-0.087693	0.000000	0.000000	0.000000	0.000000	-19.138018	0.000000	
0.036674	0.000000	0.000000	0.000000	0.000000	0.000000	0.000000	18.421347	679.213826	-46.835029	0.222292	0.000000	-0.087630	0.000000	0.000000	0.000000	0.000000	-19.079316	0.000000	
0.038345	0.000000	0.000000	0.000000	0.000000	0.000000	0.000000	18.571414	678.436494	-46.817021	0.222749	0.000000	-0.087563	0.000000	0.000000	0.000000	0.000000	-19.018427	0.000000	
0.040005	0.000000	0.000000	0.000000	0.000000	0.000000	0.000000	18.711908	677.660026	-46.795479	0.223197	0.000000	-0.087494	0.000000	0.000000	0.000000	0.000000	-18.955542	0.000000	
0.041672	0.000000	0.000000	0.000000	0.000000	0.000000	0.000000	18.842047	676.886585	-46.770353	0.223637	0.000000	-0.087422	0.000000	0.000000	0.000000	0.000000	-18.890844	0.000000	
0.043339	0.000000	0.000000	0.000000	0.000000	0.000000	0.000000	18.961087	676.118279	-46.741596	0.224064	0.000000	-0.087348	0.000000	0.000000	0.000000	0.000000	-18.824510	0.000000	
0.045001	0.000000	0.000000	0.000000	0.000000	0.000000	0.000000	19.068316	675.357196	-46.709171	0.224476	0.000000	-0.087271	0.000000	0.000000	0.000000	0.000000	-18.756715	0.000000	
0.046675	0.000000	0.000000	0.000000	0.000000	0.000000	0.000000	19.163054	674.605424	-46.673049	0.224872	0.000000	-0.087192	0.000000	0.000000	0.000000	0.000000	-18.687637	0.000000	
0.048344	0.000000	0.000000	0.000000	0.000000	0.000000	0.000000	19.244644	673.865074	-46.633212	0.225248	0.000000	-0.087111	0.000000	0.000000	0.000000	0.000000	-18.617456	0.000000	
0.050006	0.000000	0.000000	0.000000	0.000000	0.000000	0.000000	19.312453	673.138304	-46.589652	0.225603	0.000000	-0.087028	0.000000	0.000000	0.000000	0.000000	-18.546362	0.000000	
0.051673	0.000000	0.000000	0.000000	0.000000	0.000000	0.000000	19.365863	672.427332	-46.542369	0.225933	0.000000	-0.086944	0.000000	0.000000	0.000000	0.000000	-18.474551	0.000000	
0.053341	0.000000	0.000000	0.000000	0.000000	0.000000	0.000000	19.404272	671.734445	-46.491377	0.226236	0.000000	-0.086857	0.000000	0.000000	0.000000	0.000000	-18.402227	0.000000	
0.055004	0.000000	0.000000	0.000000	0.000000	0.000000	0.000000	19.427094	671.062001	-46.436698	0.226510	0.000000	-0.086770	0.000000	0.000000	0.000000	0.000000	-18.329605	0.000000	
0.056668	0.000000	0.000000	0.000000	0.000000	0.000000	0.000000	19.433759	670.412431	-46.378368	0.226752	0.000000	-0.086681	0.000000	0.000000	0.000000	0.000000	-18.256906	0.000000	
0.058339	0.000000	0.000000	0.000000	0.000000	0.000000	0.000000	19.423710	669.788226	-46.316432	0.226959	0.000000	-0.086591	0.000000	0.000000	0.000000	0.000000	-18.184360	0.000000	
0.060001	0.000000	0.000000	0.000000	0.000000	0.000000	0.000000	19.396415	669.191931	-46.250945	0.227130	0.000000	-0.086501	0.000000	0.000000	0.000000	0.000000	-18.112200	0.000000	
0.061673	0.000000	0.000000	0.000000	0.000000	0.000000	0.000000	19.351360	668.626130	-46.181974	0.227261	0.000000	-0.086410	0.000000	0.000000	0.000000	0.000000	-18.040665	0.000000	
0.063342	0.000000	0.000000	0.000000	0.000000	0.000000	0.000000	19.288061	668.093432	-46.109597	0.227350	0.000000	-0.086319	0.000000	0.000000	0.000000	0.000000	-17.969995	0.000000	
0.065002	0.000000	0.000000	0.000000	0.000000	0.000000	0.000000	19.206060	667.596450	-46.033904	0.227395	0.000000	-0.086228	0.000000	0.000000	0.000000	0.000000	-17.900428	0.000000	
0.066672	0.000000	0.000000	0.000000	0.000000	0.000000	0.000000	19.104935	667.137792	-45.954994	0.227394	0.000000	-0.086137	0.000000	0.000000	0.000000	0.000000	-17.832204	0.000000	
0.068352	0.000000	0.000000	0.000000	0.000000	0.000000	0.000000	18.984303	666.720040	-45.872980	0.227344	0.000000	-0.086046	0.000000	0.000000	0.000000	0.000000	-17.765556	0.000000	
0.070002	0.000000	0.000000	0.000000	0.000000	0.000000	0.000000	18.843818	666.345741	-45.787986	0.227245	0.000000	-0.085957	0.000000	0.000000	0.000000	0.000000	-17.700714	0.000000	
0.071671	0.000000	0.000000	0.000000	0.000000	0.000000	0.000000	18.683180	666.017388	-45.700149	0.227093	0.000000	-0.085868	0.000000	0.000000	0.000000	0.000000	-17.637902	0.000000	
0.073335	0.000000	0.000000	0.000000	0.000000	0.000000	0.000000	18.502135	665.737416	-45.609618	0.226888	0.000000	-0.085781	0.000000	0.000000	0.000000	0.000000	-17.577338	0.000000	
0.075007	0.000000	0.000000	0.000000	0.000000	0.000000	0.000000	18.300476	665.508188	-45.516557	0.226628	0.000000	-0.085694	0.000000	0.000000	0.000000	0.000000	-17.519231	0.000000	
0.076680	0.000000	0.000000	0.000000	0.000000	0.000000	0.000000	18.078046	665.331990	-45.421141	0.226311	0.000000	-0.085610	0.000000	0.000000	0.000000	0.000000	-17.463785	0.000000	
0.078338	0.000000	0.000000	0.000000	0.000000	0.000000	0.000000	17.834737	665.211024	-45.323561	0.225937	0.000000	-0.085528	0.000000	0.000000	0.000000	0.000000	-17.411193	0.000000	
0.080006	0.000000	0.000000	0.000000	0.000000	0.000000	0.000000	17.570492	665.147401	-45.224023	0.225505	0.000000	-0.085447	0.000000	0.000000	0.000000	0.000000	-17.361641	0.000000	
0.081672	0.000000	0.000000	0.000000	0.000000	0.000000	0.000000	17.285304	665.143141	-45.122745	0.225014	0.000000	-0.085369	0.000000	0.000000	0.000000	0.000000	-17.315308	0.000000	
0.083338	0.000000	0.000000	0.000000	0.000000	0.000000	0.000000	16.979219	665.200165	-45.019963	0.224464	0.000000	-0.085293	0.000000	0.000000	0.000000	0.000000	-17.272362	0.000000	
0.085001	0.000000	0.000000	0.000000	0.000000	0.000000	0.000000	16.652328	665.320296	-44.915925	0.223854	0.000000	-0.085220	0.000000	0.000000	0.000000	0.000000	-17.232964	0.000000	
0.086667	0.000000	0.000000	0.000000	0.000000	0.000000	0.000000	16.304777	665.505250	-44.810895	0.223185	0.000000	-0.085149	0.000000	0.000000	0.000000	0.000000	-17.197265	0.000000	
0.088340	0.000000	0.000000	0.000000	0.000000	0.000000	0.000000	15.936755	665.756642	-44.705152	0.222457	0.000000	-0.085082	0.000000	0.000000	0.000000	0.000000	-17.165408	0.000000	
0.090001	0.000000	0.000000	0.000000	0.000000	0.000000	0.000000	15.548501	666.075973	-44.598989	0.221671	0.000000	-0.085017	0.000000	0.000000	0.000000	0.000000	-17.137527	0.000000	
0.091669	0.000000	0.000000	0.000000	0.000000	0.000000	0.000000	15.140301	666.464634	-44.492713	0.220827	0.000000	-0.084956	0.000000	0.000000	0.000000	0.000000	-17.113746	0.000000	
0.093335	0.000000	0.000000	0.000000	0.000000	0.000000	0.000000	14.712484	666.923902	-44.386647	0.219926	0.000000	-0.084898	0.000000	0.000000	0.000000	0.000000	-17.094177	0.000000	
0.095006	0.000000	0.000000	0.000000	0.000000	0.000000	0.000000	14.265425	667.454932	-44.281124	0.218971	0.000000	-0.084843	0.000000	0.000000	0.000000	0.000000	-17.078925	0.000000	
0.096667	0.000000	0.000000	0.000000	0.000000	0.000000	0.000000	13.799540	668.058760	-44.176493	0.217961	0.000000	-0.084792	0.000000	0.000000	0.000000	0.000000	-17.068082	0.000000	
0.098363	0.000000	0.000000	0.000000	0.000000	0.000000	0.000000	13.315286	668.736298	-44.073112	0.216899	0.000000	-0.084744	0.000000	0.000000	0.000000	0.000000	-17.061730	0.000000	
0.100007	0.000000	0.000000	0.000000	0.000000	0.000000	0.000000	12.813162	669.488328	-43.971354	0.215788	0.000000	-0.084699	0.000000	0.000000	0.000000	0.000000	-17.059937	0.000000	
